<svg width="69" height="20" viewBox="0 0 69 20" fill="none" xmlns="http://www.w3.org/2000/svg">
<path d="M14.5315 15.206V13.9204H16.2856C16.6779 13.9204 16.9976 13.8404 17.2444 13.6807C17.4916 13.5135 17.6693 13.2956 17.7783 13.027C17.8947 12.7583 17.9526 12.4604 17.9526 12.1335C17.9526 11.7049 17.8328 11.3998 17.5931 11.2183C17.3608 11.0368 17.052 10.9459 16.667 10.9459H14.5315V9.62761H16.6779C17.5787 9.62761 18.276 9.84179 18.7698 10.2704C19.2638 10.6916 19.5107 11.3018 19.5107 12.1009C19.5107 12.5077 19.4453 12.8999 19.3146 13.2776C19.1838 13.648 18.9877 13.9786 18.7262 14.269C18.4647 14.5595 18.1344 14.7883 17.7347 14.9554C17.3353 15.1226 16.8631 15.206 16.3183 15.206H14.5315ZM13.6816 17.4723V9.62761H15.2288V17.4723H13.6816Z" fill="#1F074F"/>
<path d="M23.1949 17.6028C22.2868 17.6028 21.6004 17.454 21.1356 17.1561C20.678 16.8582 20.4492 16.3753 20.4492 15.707C20.4492 15.2783 20.5545 14.9262 20.7652 14.6501C20.9831 14.374 21.2844 14.1707 21.6695 14.04C22.0617 13.9021 22.5122 13.833 23.0205 13.833C23.3328 13.833 23.6052 13.8585 23.8377 13.9092C24.0702 13.9528 24.2807 14.0001 24.4696 14.0509V15.0315C24.3243 14.9807 24.139 14.9371 23.9139 14.9007C23.6889 14.8571 23.471 14.8353 23.2602 14.8353C22.788 14.8353 22.4359 14.9007 22.2034 15.0315C21.9783 15.1622 21.8656 15.3838 21.8656 15.6961C21.8656 15.994 21.9783 16.2082 22.2034 16.3389C22.4285 16.4697 22.7519 16.535 23.1731 16.535C23.4274 16.535 23.6705 16.5132 23.9031 16.4697C24.1428 16.4189 24.3535 16.3426 24.535 16.2409L24.3171 16.6658C24.2881 16.5786 24.2626 16.4914 24.2408 16.4043C24.219 16.3171 24.201 16.2262 24.1863 16.1319C24.1792 16.0376 24.1717 15.9321 24.1645 15.8159C24.1645 15.6924 24.1645 15.5436 24.1645 15.3692V13.8766C24.1645 13.5061 24.1063 13.2266 23.9902 13.0376C23.8741 12.8487 23.7032 12.7254 23.4781 12.6672C23.2531 12.6018 22.9732 12.5691 22.6392 12.5691C22.3341 12.5691 22.0399 12.6018 21.7567 12.6672C21.4734 12.7254 21.2446 12.7942 21.0703 12.8742H20.9613V11.6648C21.2228 11.5705 21.517 11.5014 21.8438 11.4578C22.1707 11.407 22.4976 11.3815 22.8244 11.3815C23.2313 11.3815 23.6052 11.4179 23.9466 11.4905C24.2953 11.563 24.5966 11.6903 24.851 11.8718C25.1053 12.0533 25.3014 12.3113 25.4393 12.6454C25.5847 12.9722 25.6572 13.3972 25.6572 13.9201V15.293C25.6572 15.4455 25.6572 15.6379 25.6572 15.8704C25.6644 16.0955 25.6753 16.3171 25.6899 16.535C25.7045 16.7529 25.7263 16.9273 25.7553 17.058L25.7226 17.1452C25.4757 17.2395 25.2068 17.3232 24.9163 17.3958C24.633 17.4611 24.3426 17.5119 24.0447 17.5483C23.7468 17.5847 23.4635 17.6028 23.1949 17.6028Z" fill="#1F074F"/>
<path d="M27.9281 20V19.8693L29.3663 16.4155L31.1423 11.5234H32.6894V11.6542L29.4426 20H27.9281ZM29.0068 17.919L26.6207 11.6542V11.5234H28.2441L29.8348 16.2738L29.0068 17.919Z" fill="#1F074F"/>
<path d="M33.9078 17.472V13.7567C33.9078 13.6113 33.9043 13.4261 33.8969 13.201C33.8897 12.9685 33.8788 12.7434 33.8642 12.5255C33.857 12.3005 33.8352 12.1224 33.7988 11.9917L33.8315 11.9045C34.0494 11.8102 34.3075 11.7264 34.6051 11.6539C34.903 11.5739 35.2118 11.5085 35.5312 11.4578C35.8581 11.407 36.1706 11.3815 36.4682 11.3815C36.8097 11.3815 37.1403 11.4214 37.4597 11.5014C37.7865 11.5739 38.0773 11.7084 38.3313 11.9045C38.5928 12.1006 38.7998 12.373 38.9523 12.7216C39.1049 13.0631 39.1811 13.5024 39.1811 14.04V17.472H37.6558V14.1054C37.6558 13.7059 37.5979 13.4009 37.4815 13.1901C37.3725 12.9722 37.2165 12.8234 37.013 12.7434C36.8168 12.6563 36.588 12.6127 36.3266 12.6127C36.1086 12.6127 35.8873 12.6382 35.6619 12.689C35.444 12.7397 35.2516 12.7979 35.0845 12.8633L35.3133 12.482C35.3497 12.5909 35.3787 12.7325 35.4004 12.9069C35.4222 13.0812 35.4331 13.281 35.4331 13.5061V17.472H33.9078ZM41.3057 17.472V14.1054C41.3057 13.7059 41.2513 13.4009 41.1423 13.1901C41.0408 12.9722 40.8845 12.8234 40.6738 12.7434C40.4705 12.6563 40.2236 12.6127 39.9329 12.6127C39.7514 12.6127 39.5662 12.6345 39.3773 12.6781C39.1958 12.7145 39.0177 12.7652 38.8434 12.8306L38.0153 11.85C38.3422 11.7121 38.6874 11.5994 39.0504 11.5123C39.4208 11.4251 39.7878 11.3815 40.1508 11.3815C40.4995 11.3815 40.8338 11.4179 41.1532 11.4905C41.4729 11.563 41.7599 11.6975 42.0139 11.8936C42.2683 12.0825 42.4681 12.3512 42.6132 12.6999C42.7585 13.0413 42.8311 13.488 42.8311 14.04V17.472H41.3057Z" fill="#1F074F"/>
<path d="M47.8857 17.581C47.3409 17.581 46.8541 17.5193 46.4257 17.3958C45.9971 17.2722 45.6338 17.087 45.3362 16.8401C45.0383 16.5858 44.8095 16.2626 44.6498 15.8704C44.4972 15.4782 44.421 15.0134 44.421 14.4758C44.421 13.8367 44.5408 13.2882 44.7805 12.8306C45.0202 12.3658 45.358 12.0097 45.7938 11.7629C46.2368 11.5085 46.7526 11.3815 47.3409 11.3815C48.0018 11.3815 48.5394 11.5194 48.9535 11.7955C49.3675 12.0642 49.6651 12.4421 49.8469 12.9287C50.0284 13.4081 50.1046 13.96 50.0757 14.5848L50.0648 14.9443H45.4016V13.9419H48.583V13.8766C48.583 13.4336 48.4775 13.0958 48.267 12.8633C48.0635 12.6308 47.7512 12.5146 47.33 12.5146C47.0686 12.5146 46.8323 12.5728 46.6218 12.689C46.4183 12.7979 46.2549 12.9869 46.1316 13.2555C46.0152 13.5242 45.9572 13.8912 45.9572 14.356V14.5848C45.9572 15.0424 46.0444 15.4019 46.2187 15.6634C46.393 15.9177 46.6327 16.0992 46.9378 16.2082C47.2429 16.3171 47.595 16.3716 47.9947 16.3716C48.3505 16.3716 48.6627 16.3389 48.9317 16.2735C49.2003 16.2082 49.4111 16.1319 49.5636 16.0447H49.6725V17.2759C49.469 17.3631 49.2184 17.4356 48.9208 17.4938C48.6301 17.552 48.2851 17.581 47.8857 17.581Z" fill="#1F074F"/>
<path d="M51.7292 17.472V13.7567C51.7292 13.6113 51.7255 13.4261 51.7183 13.201C51.7112 12.9685 51.7003 12.7434 51.6857 12.5255C51.6785 12.3005 51.6567 12.1224 51.6203 11.9917L51.653 11.9045C51.8709 11.8102 52.1286 11.7264 52.4265 11.6539C52.7316 11.5739 53.0439 11.5085 53.3635 11.4578C53.6904 11.407 53.9992 11.3815 54.2896 11.3815C54.6601 11.3815 55.0125 11.4214 55.3465 11.5014C55.688 11.5739 55.993 11.7084 56.2617 11.9045C56.5304 12.1006 56.7411 12.373 56.8936 12.7216C57.0462 13.0631 57.1224 13.5024 57.1224 14.04V17.472H55.5971V14.1054C55.5971 13.7059 55.5389 13.4009 55.4228 13.1901C55.3066 12.9722 55.1395 12.8234 54.9216 12.7434C54.7037 12.6563 54.4459 12.6127 54.148 12.6127C53.9301 12.6127 53.7085 12.6382 53.4834 12.689C53.2655 12.7397 53.0731 12.7979 52.9059 12.8633L53.1347 12.482C53.1711 12.5909 53.2001 12.7325 53.2219 12.9069C53.2437 13.0812 53.2546 13.281 53.2546 13.5061V17.472H51.7292Z" fill="#1F074F"/>
<path d="M61.5894 17.5596C61.0736 17.5596 60.6343 17.4833 60.2711 17.3308C59.9152 17.1783 59.6429 16.9457 59.4539 16.6335C59.2724 16.3138 59.1815 15.9035 59.1815 15.4023V9.9873H60.7069V15.2825C60.7069 15.6529 60.7941 15.9181 60.9684 16.0778C61.1427 16.2375 61.4114 16.3175 61.7746 16.3175C61.9126 16.3175 62.047 16.3029 62.1778 16.2739C62.3157 16.245 62.4355 16.2086 62.5373 16.165H62.6354V17.3853C62.5046 17.436 62.3521 17.4762 62.1778 17.5051C62.0034 17.5415 61.8073 17.5596 61.5894 17.5596ZM58.2336 12.7438V11.5236H62.3303V12.7438H58.2336Z" fill="#1F074F"/>
<path d="M63.6693 15.9688H63.7564C64.0179 16.0778 64.323 16.1721 64.6716 16.2521C65.0275 16.3321 65.3833 16.372 65.7394 16.372C65.8627 16.372 65.9971 16.3682 66.1425 16.3611C66.2876 16.3464 66.4221 16.3212 66.5456 16.2848C66.6764 16.2484 66.7816 16.183 66.8616 16.0887C66.9488 15.9943 66.9923 15.8671 66.9923 15.7073C66.9923 15.5041 66.9086 15.3624 66.7417 15.2824C66.5746 15.2024 66.3168 15.1336 65.9682 15.0754L65.4561 14.9882C64.8749 14.8865 64.4282 14.7121 64.116 14.4653C63.8035 14.211 63.6475 13.8371 63.6475 13.343C63.6475 12.9872 63.7418 12.6638 63.9307 12.3734C64.1269 12.0829 64.4282 11.8541 64.8351 11.6869C65.2491 11.5126 65.7901 11.4255 66.4585 11.4255C66.7707 11.4255 67.0577 11.4472 67.3192 11.4908C67.5879 11.5272 67.8422 11.5817 68.0819 11.6543V12.9072H67.9947C67.7186 12.7983 67.4534 12.722 67.1994 12.6784C66.945 12.6349 66.6836 12.6131 66.4149 12.6131C66.008 12.6131 65.6884 12.6638 65.4561 12.7656C65.2307 12.8599 65.1183 13.0308 65.1183 13.2777C65.1183 13.4666 65.2018 13.6008 65.3689 13.6808C65.5433 13.7608 65.7938 13.8296 66.1207 13.8878L66.6219 13.975C66.9631 14.0257 67.2719 14.1166 67.548 14.2474C67.8313 14.3781 68.0564 14.5596 68.2235 14.7921C68.3904 15.0172 68.4741 15.3079 68.4741 15.6638C68.4741 16.2957 68.2379 16.7714 67.7659 17.0911C67.3009 17.4033 66.5964 17.5596 65.6522 17.5596C65.3036 17.5596 64.9549 17.5306 64.6063 17.4724C64.2576 17.4142 63.9451 17.3416 63.6693 17.2545V15.9688Z" fill="#1F074F"/>
<path d="M19.6562 4.42352C19.6562 3.60264 19.8122 2.89099 20.1247 2.28802C20.4441 1.67788 20.9126 1.20566 21.5302 0.871625C22.1547 0.537589 22.9211 0.370441 23.8291 0.370441C24.1995 0.370441 24.5299 0.3994 24.8206 0.457597C25.1182 0.515794 25.3653 0.592068 25.5615 0.686406V2.05922H25.4525C25.2636 1.95027 25.0348 1.86683 24.7661 1.80863C24.4972 1.74326 24.2104 1.71057 23.9054 1.71057C23.3242 1.71057 22.8376 1.81581 22.4454 2.02654C22.0532 2.23727 21.7553 2.54579 21.552 2.95264C21.3484 3.35205 21.2469 3.84234 21.2469 4.42352C21.2469 5.00469 21.3484 5.49844 21.552 5.90529C21.7553 6.3047 22.0532 6.60977 22.4454 6.8205C22.8376 7.03123 23.3242 7.13647 23.9054 7.13647C24.2104 7.13647 24.4972 7.10751 24.7661 7.04931C25.0348 6.98394 25.2636 6.89677 25.4525 6.78782H25.5615V8.16064C25.3653 8.25498 25.1182 8.33124 24.8206 8.38944C24.5299 8.44764 24.1995 8.4766 23.8291 8.4766C22.9211 8.4766 22.1547 8.31317 21.5302 7.98631C20.9126 7.65945 20.4441 7.19466 20.1247 6.5917C19.8122 5.98156 19.6562 5.25874 19.6562 4.42352Z" fill="#1F074F"/>
<path d="M29.6686 8.4768C28.7606 8.4768 28.0742 8.32798 27.6094 8.03009C27.1518 7.73219 26.923 7.24934 26.923 6.581C26.923 6.15236 27.0282 5.80025 27.239 5.52415C27.4569 5.24804 27.7582 5.04475 28.1433 4.91401C28.5355 4.77609 28.9857 4.707 29.4943 4.707C29.8066 4.707 30.0789 4.7325 30.3115 4.78326C30.5437 4.82684 30.7545 4.87415 30.9434 4.92491V5.90548C30.798 5.85473 30.6128 5.81115 30.3877 5.77475C30.1624 5.73116 29.9445 5.70937 29.734 5.70937C29.2618 5.70937 28.9094 5.77474 28.6772 5.90548C28.4518 6.03623 28.3394 6.25786 28.3394 6.5701C28.3394 6.868 28.4518 7.08219 28.6772 7.21293C28.9022 7.34368 29.2254 7.40905 29.6469 7.40905C29.9009 7.40905 30.1443 7.38726 30.3768 7.34368C30.6165 7.29292 30.827 7.21666 31.0088 7.11488L30.7909 7.5398C30.7616 7.45263 30.7364 7.36547 30.7146 7.27831C30.6928 7.19114 30.6745 7.10026 30.6601 7.00592C30.6527 6.91158 30.6455 6.80609 30.6383 6.68996C30.6383 6.56639 30.6383 6.41757 30.6383 6.24325V4.75058C30.6383 4.38014 30.5801 4.10057 30.464 3.91163C30.3476 3.72269 30.177 3.59939 29.9519 3.54119C29.7266 3.47582 29.447 3.44313 29.113 3.44313C28.8079 3.44313 28.5137 3.47582 28.2305 3.54119C27.9472 3.59939 27.7184 3.66822 27.544 3.7482H27.4351V2.53882C27.6966 2.44448 27.9908 2.37538 28.3176 2.3318C28.6445 2.28104 28.9713 2.25554 29.2982 2.25554C29.7048 2.25554 30.0789 2.29194 30.4204 2.36449C30.7691 2.43704 31.0704 2.56433 31.3247 2.74583C31.5788 2.92733 31.7749 3.18537 31.9131 3.5194C32.0582 3.84626 32.131 4.27118 32.131 4.79416V6.16697C32.131 6.31951 32.131 6.51191 32.131 6.74443C32.1382 6.96951 32.1491 7.19114 32.1637 7.40905C32.178 7.62696 32.1998 7.80128 32.2291 7.93203L32.1964 8.01919C31.9492 8.11353 31.6806 8.19723 31.3901 8.26978C31.1068 8.33515 30.8161 8.38591 30.5185 8.42232C30.2206 8.45872 29.9373 8.4768 29.6686 8.4768Z" fill="#1F074F"/>
<path d="M33.7124 6.8422H33.7995C34.061 6.95115 34.3661 7.04549 34.7148 7.12548C35.0706 7.20547 35.4264 7.24533 35.7825 7.24533C35.9058 7.24533 36.0403 7.24161 36.1856 7.23443C36.3307 7.21982 36.4652 7.19458 36.5888 7.15817C36.7195 7.12176 36.8247 7.05639 36.9047 6.96205C36.9919 6.86771 37.0355 6.74042 37.0355 6.58071C37.0355 6.37742 36.9518 6.23578 36.7849 6.15579C36.6177 6.07581 36.36 6.00697 36.0113 5.94878L35.4992 5.86162C34.9181 5.75984 34.4713 5.58551 34.1591 5.33864C33.8466 5.08432 33.6906 4.71043 33.6906 4.21642C33.6906 3.86059 33.7849 3.53718 33.9739 3.24672C34.17 2.95627 34.4713 2.72747 34.8782 2.56032C35.2922 2.38599 35.8333 2.29883 36.5016 2.29883C36.8138 2.29883 37.1008 2.32062 37.3623 2.3642C37.631 2.40061 37.8853 2.45508 38.125 2.52763V3.7806H38.0379C37.7617 3.67164 37.4965 3.59538 37.2425 3.5518C36.9882 3.50821 36.7267 3.48642 36.458 3.48642C36.0512 3.48642 35.7315 3.53718 35.4992 3.63896C35.2739 3.7333 35.1615 3.90417 35.1615 4.15104C35.1615 4.33998 35.2449 4.47418 35.4121 4.55417C35.5864 4.63416 35.837 4.70298 36.1638 4.76118L36.665 4.84835C37.0062 4.8991 37.315 4.98998 37.5911 5.12073C37.8744 5.25147 38.0995 5.43298 38.2667 5.6655C38.4335 5.89058 38.5172 6.1813 38.5172 6.53713C38.5172 7.16906 38.281 7.64474 37.8091 7.96443C37.344 8.27667 36.6395 8.43293 35.6953 8.43293C35.3467 8.43293 34.998 8.40396 34.6494 8.34577C34.3007 8.28757 33.9882 8.21502 33.7124 8.12786V6.8422Z" fill="#1F074F"/>
<path d="M40.03 8.34592V1.90675C40.03 1.76138 40.0263 1.57617 40.0191 1.35109C40.0117 1.11856 40.0008 0.893476 39.9864 0.675568C39.979 0.457661 39.9572 0.283338 39.9211 0.152594L39.9537 0.0654297H41.5554V3.11614L41.2285 2.61495C41.4536 2.51317 41.697 2.42973 41.9585 2.36436C42.2272 2.29181 42.5359 2.2554 42.8846 2.2554C43.2404 2.2554 43.571 2.3027 43.8761 2.39704C44.1883 2.4842 44.457 2.63302 44.6823 2.84375C44.9146 3.04704 45.0964 3.31943 45.2271 3.6609C45.3579 3.99494 45.4232 4.41269 45.4232 4.91387V8.34592H43.8979V4.99015C43.8979 4.60509 43.8397 4.30745 43.7235 4.09672C43.6072 3.87881 43.4437 3.72999 43.2333 3.65001C43.0297 3.56284 42.79 3.51927 42.5142 3.51927C42.3616 3.51927 42.2016 3.53388 42.0348 3.56285C41.8748 3.59182 41.7223 3.6245 41.5772 3.6609C41.439 3.69731 41.33 3.72999 41.2503 3.75896L41.5554 3.07256V8.34592H40.03Z" fill="#1F074F"/>
<path d="M47.5881 8.34586V2.45146C47.5881 1.89208 47.6862 1.43102 47.8823 1.06775C48.0856 0.704481 48.3726 0.435818 48.743 0.261491C49.1135 0.0871654 49.5639 0 50.094 0C50.283 0 50.4499 0.0108916 50.5952 0.0326824C50.7478 0.0544731 50.8785 0.0871642 50.9875 0.130746V1.30745H50.8785C50.7914 1.27104 50.6933 1.24208 50.5843 1.22029C50.4826 1.19132 50.3518 1.1767 50.1921 1.1767C49.8071 1.1767 49.5312 1.27848 49.3641 1.48177C49.1969 1.68506 49.1135 2.01565 49.1135 2.47325V8.34586H47.5881ZM46.6402 3.61727V2.39698H50.6279V3.61727H46.6402Z" fill="#1F074F"/>
<path d="M51.7654 8.34594V4.54345C51.7654 4.39809 51.762 4.21287 51.7546 3.98779C51.7474 3.75527 51.7365 3.53018 51.7219 3.31227C51.7147 3.08719 51.6929 2.90914 51.6565 2.7784L51.6892 2.69124C51.8927 2.61869 52.1287 2.55332 52.3974 2.49512C52.6735 2.43692 52.9605 2.39334 53.2581 2.36438C53.5632 2.32797 53.8683 2.30989 54.1733 2.30989C54.3041 2.30989 54.4457 2.31362 54.5982 2.32079C54.7508 2.32797 54.9033 2.34259 55.0559 2.36438V3.60645H54.9578C54.8488 3.57749 54.7255 3.55915 54.5873 3.55197C54.4494 3.53736 54.315 3.53018 54.1842 3.53018C53.952 3.53018 53.7232 3.54825 53.4978 3.58466C53.2727 3.62107 53.0803 3.66464 52.9204 3.7154L53.1492 3.36675C53.2438 3.56287 53.2908 3.90062 53.2908 4.38002V8.34594H51.7654Z" fill="#1F074F"/>
<path d="M59.4234 8.45501C58.8786 8.45501 58.392 8.39335 57.9634 8.26978C57.535 8.14621 57.1718 7.961 56.8739 7.71412C56.5762 7.45981 56.3474 7.13666 56.1875 6.74443C56.0349 6.3522 55.9587 5.88742 55.9587 5.34983C55.9587 4.71072 56.0785 4.16223 56.3182 3.70462C56.5579 3.23984 56.8957 2.88375 57.3315 2.63687C57.7747 2.38256 58.2903 2.25554 58.8786 2.25554C59.5398 2.25554 60.0771 2.39346 60.4911 2.66956C60.9052 2.93823 61.2031 3.3161 61.3846 3.80268C61.5663 4.28207 61.6426 4.83402 61.6134 5.45877L61.6025 5.81833H56.9392V4.81595H60.1207V4.75058C60.1207 4.30759 60.0155 3.96983 59.8047 3.7373C59.6014 3.50478 59.2892 3.38866 58.8677 3.38866C58.6062 3.38866 58.3703 3.44686 58.1595 3.56298C57.9562 3.67194 57.7928 3.86088 57.6692 4.12954C57.5531 4.39821 57.4949 4.76519 57.4949 5.22997V5.45877C57.4949 5.91638 57.5821 6.27593 57.7564 6.53742C57.9307 6.79174 58.1704 6.97323 58.4755 7.08219C58.7806 7.19114 59.1329 7.24562 59.5323 7.24562C59.8884 7.24562 60.2007 7.21293 60.4693 7.14756C60.7383 7.08219 60.9487 7.00592 61.1013 6.91876H61.2102V8.14994C61.0069 8.2371 60.7563 8.30965 60.4584 8.36785C60.168 8.42604 59.8231 8.45501 59.4234 8.45501Z" fill="#1F074F"/>
<path d="M66.3602 8.45501C65.8155 8.45501 65.3289 8.39335 64.9003 8.26978C64.4716 8.14621 64.1086 7.961 63.8107 7.71412C63.5128 7.45981 63.284 7.13666 63.1243 6.74443C62.9718 6.3522 62.8955 5.88742 62.8955 5.34983C62.8955 4.71072 63.0154 4.16223 63.2551 3.70462C63.4948 3.23984 63.8325 2.88375 64.2683 2.63687C64.7113 2.38256 65.2271 2.25554 65.8155 2.25554C66.4764 2.25554 67.014 2.39346 67.428 2.66956C67.842 2.93823 68.1399 3.3161 68.3214 3.80268C68.5029 4.28207 68.5792 4.83402 68.5502 5.45877L68.5393 5.81833H63.8761V4.81595H67.0575V4.75058C67.0575 4.30759 66.9523 3.96983 66.7416 3.7373C66.5383 3.50478 66.2258 3.38866 65.8046 3.38866C65.5431 3.38866 65.3071 3.44686 65.0964 3.56298C64.8931 3.67194 64.7297 3.86088 64.6061 4.12954C64.49 4.39821 64.4318 4.76519 64.4318 5.22997V5.45877C64.4318 5.91638 64.5189 6.27593 64.6932 6.53742C64.8676 6.79174 65.1073 6.97323 65.4123 7.08219C65.7174 7.19114 66.0698 7.24562 66.4692 7.24562C66.825 7.24562 67.1375 7.21293 67.4062 7.14756C67.6749 7.08219 67.8856 7.00592 68.0381 6.91876H68.1471V8.14994C67.9438 8.2371 67.6932 8.30965 67.3953 8.36785C67.1048 8.42604 66.7596 8.45501 66.3602 8.45501Z" fill="#1F074F"/>
<path d="M6.7129 0.108074C5.13466 0.108074 3.85539 1.38735 3.85539 2.96558H14.4608C16.0391 2.96558 17.3184 1.68631 17.3184 0.108074H6.7129Z" fill="#04AB61"/>
<path d="M3.85539 2.96558C3.85539 1.38735 5.13466 0.108074 6.7129 0.108074V10.7138C6.7129 12.2918 5.43362 13.5713 3.85539 13.5713V2.96558Z" fill="#04AB61"/>
<path fill-rule="evenodd" clip-rule="evenodd" d="M7.62044 3.91797V6.77548H10.9536C12.5319 6.77548 13.8111 5.4962 13.8111 3.91797H7.62044Z" fill="#FBB016"/>
<path d="M0 6.77548C0 5.19751 1.27928 3.91797 2.85751 3.91797V14.5237C2.85751 16.1019 1.57824 17.3812 0 17.3812V6.77548Z" fill="#FBB016"/>
</svg>
